<?xml version="1.0" encoding="utf-8"?>
<!-- Generator: Adobe Illustrator 27.0.0, SVG Export Plug-In . SVG Version: 6.00 Build 0)  -->
<svg version="1.1" id="_Слой_1" xmlns="http://www.w3.org/2000/svg" xmlns:xlink="http://www.w3.org/1999/xlink" x="0px"
	 y="0px" viewBox="0 0 71 11.9" style="enable-background:new 0 0 71 11.9;" xml:space="preserve">
<style type="text/css">
	.st0{fill:#FFFFFF;}
</style>
<g>
	<polygon class="st0" points="11.9,5.4 15.1,3.7 15.1,0 7.5,4.4 0,0 0,10.1 3.1,11.9 3.1,5.4 7.5,7.9 	"/>
	<polygon class="st0" points="11.9,7 11.9,11.9 15.1,10.1 15.1,5.1 	"/>
</g>
<g>
	<path class="st0" d="M29.2,2h1.5v8.4h-1.4v-6l-2.6,4.2h-0.2l-2.6-4.2v6h-1.4V2H24l2.5,4.2L29.2,2z"/>
	<path class="st0" d="M38,7.9h-4.8c0.1,0.4,0.3,0.8,0.7,1s0.8,0.4,1.3,0.4c0.7,0,1.2-0.2,1.5-0.7l1.1,0.6c-0.6,0.9-1.5,1.3-2.6,1.3
		c-1,0-1.8-0.3-2.4-0.9c-0.6-0.5-0.9-1.3-0.9-2.2s0.3-1.6,0.9-2.2c0.6-0.6,1.3-0.9,2.3-0.9c0.9,0,1.6,0.3,2.2,0.9s0.9,1.4,0.9,2.2
		C38.1,7.6,38.1,7.7,38,7.9z M33.2,6.9h3.5c-0.1-0.5-0.3-0.8-0.6-1.1c-0.3-0.3-0.7-0.4-1.1-0.4c-0.5,0-0.9,0.1-1.2,0.4
		S33.3,6.4,33.2,6.9z"/>
	<path class="st0" d="M42.4,4.4v1.2h-1.5v2.9c0,0.2,0.1,0.4,0.2,0.5c0.1,0.1,0.3,0.2,0.5,0.2s0.5,0,0.8,0v1.2c-1,0.1-1.7,0-2.1-0.3
		c-0.4-0.3-0.6-0.8-0.6-1.6V5.6h-1.1V4.4h1.1V3.1L41,2.7v1.7H42.4z"/>
	<path class="st0" d="M48.1,5.2V4.4h1.3v6h-1.3V9.5c-0.5,0.7-1.2,1-2.1,1c-0.8,0-1.5-0.3-2.1-0.9S43,8.3,43,7.4s0.3-1.6,0.9-2.2
		c0.6-0.6,1.3-0.9,2.1-0.9C46.9,4.2,47.6,4.6,48.1,5.2z M44.8,8.8c0.4,0.3,0.8,0.5,1.4,0.5s1-0.2,1.4-0.5C48,8.4,48.1,8,48.1,7.4
		s-0.2-1-0.5-1.4c-0.4-0.3-0.9-0.5-1.4-0.5s-1,0.2-1.4,0.6s-0.5,0.8-0.5,1.4C44.3,7.9,44.5,8.4,44.8,8.8z"/>
	<path class="st0" d="M54,1.8V3c-0.9-0.1-1.4,0.3-1.4,1.2v0.1H54v1.2h-1.4v4.8h-1.3V5.6h-0.9V4.4h0.9V4.3c0-0.8,0.2-1.5,0.7-1.9
		S53.1,1.8,54,1.8z"/>
	<path class="st0" d="M57.3,10.6c-0.9,0-1.6-0.3-2.2-0.9c-0.6-0.7-0.9-1.4-0.9-2.3s0.3-1.6,0.9-2.2c0.6-0.6,1.4-0.9,2.2-0.9
		s1.6,0.3,2.2,0.9c0.6,0.6,0.9,1.4,0.9,2.2S60.1,9,59.5,9.6C59,10.2,58.2,10.6,57.3,10.6z M55.5,7.4c0,0.5,0.2,1,0.5,1.4
		c0.4,0.4,0.8,0.5,1.3,0.5s1-0.2,1.3-0.5c0.4-0.4,0.6-0.9,0.6-1.4S59,6.4,58.7,6s-0.8-0.5-1.3-0.5s-1,0.2-1.3,0.5
		C55.6,6.4,55.5,6.9,55.5,7.4z"/>
	<path class="st0" d="M63,4.4v1c0.3-0.7,0.9-1.1,1.8-1.1v1.4c-0.5,0-0.9,0.1-1.3,0.4C63.2,6.3,63,6.8,63,7.4v3h-1.3v-6
		C61.7,4.4,63,4.4,63,4.4z"/>
	<path class="st0" d="M68.3,7.3l2.7,3.1h-1.5L67,7.6v2.8h-1.3V2H67v5.1l2.3-2.7h1.6L68.3,7.3z"/>
</g>
</svg>
